<svg width="45" height="45" viewBox="0 0 45 45" fill="none" xmlns="http://www.w3.org/2000/svg">
<path d="M39.375 33.75H35.625V28.125C35.625 27.6277 35.4275 27.1508 35.0758 26.7992C34.7242 26.4475 34.2473 26.25 33.75 26.25H24.375V21.1688L26.4937 22.275C26.8027 22.4366 27.1507 22.5089 27.4985 22.4837C27.8463 22.4585 28.1801 22.3368 28.4626 22.1322C28.745 21.9277 28.9648 21.6485 29.0973 21.3259C29.2298 21.0034 29.2697 20.6502 29.2125 20.3063L28.4625 15.8625L31.6875 12.6938C31.9318 12.4552 32.1063 12.1545 32.1922 11.8241C32.2781 11.4937 32.2721 11.1461 32.175 10.8188C32.0663 10.4855 31.8664 10.1894 31.598 9.96405C31.3295 9.73868 31.0033 9.59307 30.6562 9.54375L26.25 8.85L24.1875 4.8C24.034 4.48299 23.7942 4.21564 23.4958 4.02858C23.1973 3.84151 22.8522 3.74229 22.5 3.74229C22.1478 3.74229 21.8027 3.84151 21.5042 4.02858C21.2058 4.21564 20.966 4.48299 20.8125 4.8L18.75 8.85L14.2688 9.50625C13.9217 9.55557 13.5955 9.70118 13.327 9.92655C13.0586 10.1519 12.8587 10.448 12.75 10.7813C12.6529 11.1086 12.6469 11.4562 12.7328 11.7866C12.8187 12.117 12.9932 12.4177 13.2375 12.6563L16.5375 15.8625L15.7875 20.3063C15.7303 20.6502 15.7702 21.0034 15.9027 21.3259C16.0352 21.6485 16.255 21.9277 16.5374 22.1322C16.8199 22.3368 17.1537 22.4585 17.5015 22.4837C17.8493 22.5089 18.1973 22.4366 18.5062 22.275L20.625 21.1688V26.25H11.25C10.7527 26.25 10.2758 26.4475 9.92418 26.7992C9.57254 27.1508 9.375 27.6277 9.375 28.125V33.75H5.625C5.12772 33.75 4.65081 33.9475 4.29917 34.2992C3.94754 34.6508 3.75 35.1277 3.75 35.625V39.375C3.75 39.8723 3.94754 40.3492 4.29917 40.7008C4.65081 41.0525 5.12772 41.25 5.625 41.25C6.12228 41.25 6.59919 41.0525 6.95083 40.7008C7.30246 40.3492 7.5 39.8723 7.5 39.375V37.5H15V39.375C15 39.8723 15.1975 40.3492 15.5492 40.7008C15.9008 41.0525 16.3777 41.25 16.875 41.25C17.3723 41.25 17.8492 41.0525 18.2008 40.7008C18.5525 40.3492 18.75 39.8723 18.75 39.375V35.625C18.75 35.1277 18.5525 34.6508 18.2008 34.2992C17.8492 33.9475 17.3723 33.75 16.875 33.75H13.125V30H31.875V33.75H28.125C27.6277 33.75 27.1508 33.9475 26.7992 34.2992C26.4475 34.6508 26.25 35.1277 26.25 35.625V39.375C26.25 39.8723 26.4475 40.3492 26.7992 40.7008C27.1508 41.0525 27.6277 41.25 28.125 41.25C28.6223 41.25 29.0992 41.0525 29.4508 40.7008C29.8025 40.3492 30 39.8723 30 39.375V37.5H37.5V39.375C37.5 39.8723 37.6975 40.3492 38.0492 40.7008C38.4008 41.0525 38.8777 41.25 39.375 41.25C39.8723 41.25 40.3492 41.0525 40.7008 40.7008C41.0525 40.3492 41.25 39.8723 41.25 39.375V35.625C41.25 35.1277 41.0525 34.6508 40.7008 34.2992C40.3492 33.9475 39.8723 33.75 39.375 33.75ZM22.5 16.1813C22.1922 16.1828 21.8896 16.2601 21.6187 16.4063L20.1187 17.1938L20.4 15.5063C20.4492 15.2078 20.4254 14.9018 20.3308 14.6145C20.2361 14.3272 20.0733 14.067 19.8563 13.8562L18.6375 12.6563L20.325 12.4125C20.6269 12.3722 20.9144 12.2589 21.1627 12.0825C21.411 11.9061 21.6126 11.6718 21.75 11.4L22.5 9.8625L23.25 11.4C23.3874 11.6718 23.589 11.9061 23.8373 12.0825C24.0856 12.2589 24.3731 12.3722 24.675 12.4125L26.3625 12.6563L25.1437 13.8562C24.9267 14.067 24.7639 14.3272 24.6692 14.6145C24.5746 14.9018 24.5508 15.2078 24.6 15.5063L24.8813 17.1938L23.3813 16.4063C23.1104 16.2601 22.8078 16.1828 22.5 16.1813Z" fill="white"/>
</svg>
