<svg width="32" height="32" viewBox="0 0 32 32" fill="none" xmlns="http://www.w3.org/2000/svg">
<path d="M29 31C28.7727 30.9999 28.5522 30.9223 28.375 30.78L23.65 27H20C19.7348 27 19.4804 26.8947 19.2929 26.7071C19.1054 26.5196 19 26.2653 19 26V21C19 20.7348 19.1054 20.4805 19.2929 20.2929C19.4804 20.1054 19.7348 20 20 20H23.65L28.376 16.22C28.523 16.1026 28.7002 16.0291 28.8872 16.0078C29.0742 15.9866 29.2633 16.0186 29.4329 16.1C29.6026 16.1815 29.7458 16.3092 29.8461 16.4684C29.9464 16.6276 29.9997 16.8119 30 17V30C30 30.2653 29.8946 30.5196 29.7071 30.7071C29.5196 30.8947 29.2652 31 29 31ZM21 25H24C24.2273 25.0002 24.4477 25.0778 24.625 25.22L28 27.92V19.08L24.624 21.78C24.447 21.9221 24.2269 21.9996 24 22H21V25Z" fill="white"/>
<path d="M16 28.0001H8V4.0001H16V10.0001C16.0016 10.53 16.2128 11.0378 16.5875 11.4126C16.9623 11.7873 17.4701 11.9985 18 12.0001H24V15.0001H26V10.0001C26.0035 9.86867 25.9785 9.73804 25.9268 9.6172C25.875 9.49636 25.7976 9.38818 25.7 9.3001L18.7 2.3001C18.612 2.20244 18.5038 2.12505 18.3829 2.07325C18.2621 2.02146 18.1314 1.9965 18 2.0001H8C7.47005 2.00168 6.96227 2.2129 6.58753 2.58763C6.2128 2.96236 6.00158 3.47015 6 4.0001V28.0001C6.00158 28.53 6.2128 29.0378 6.58753 29.4126C6.96227 29.7873 7.47005 29.9985 8 30.0001H16V28.0001ZM18 4.4001L23.6 10.0001H18V4.4001Z" fill="white"/>
</svg>
