<svg width="34" height="34" viewBox="0 0 34 34" fill="none" xmlns="http://www.w3.org/2000/svg">
<path d="M24.2256 3.36102C23.4256 2.98552 22.6691 2.63202 21.9806 2.28652C20.2161 1.40252 18.6161 0.973022 17.0911 0.973022C14.0196 0.973022 11.8941 2.74502 10.5611 4.07802L4.09712 10.549C0.638115 14.0115 0.0856144 17.5365 2.30758 21.9805C2.65212 22.6705 3.00662 23.4285 3.38162 24.2316C5.40362 28.5561 7.49362 33.028 10.9146 33.028C11.0106 33.028 11.1056 33.025 11.2026 33.0175C14.7331 32.741 15.7346 28.196 16.6186 24.1865C16.7591 23.5515 16.8921 22.9425 17.0286 22.3965C17.2661 21.4525 17.7336 20.866 19.0146 19.582L19.1906 19.405L19.2991 19.2965L19.5841 19.0125C20.8681 17.7285 21.4546 17.2615 22.3996 17.023C22.9406 16.8871 23.5481 16.753 24.1816 16.614C28.1886 15.7296 32.7316 14.7275 33.0066 11.1915C33.2841 7.60299 28.6796 5.44652 24.2256 3.36102ZM30.9521 11.0105C30.7576 13.5035 25.1767 14.2394 21.8552 15.0724C20.3862 15.4434 19.4922 16.2209 18.1432 17.5704C18.0492 17.6643 17.9547 17.7583 17.8592 17.8538C17.7647 17.9483 17.6707 18.0443 17.5762 18.1379C16.2272 19.4883 15.4512 20.3818 15.0817 21.8529C14.2482 25.1774 13.5132 30.7644 11.0232 30.9604C10.9783 30.9636 10.9332 30.9651 10.8882 30.9649C8.24615 30.9649 6.02315 24.9574 4.06168 21.0379C2.06968 17.0534 2.92315 14.4684 5.47918 11.9099C5.96968 11.4184 6.57965 10.8084 7.32715 10.0604C8.09065 9.29593 8.99862 8.38693 10.0746 7.31043C10.8216 6.56243 11.4311 5.95343 11.9221 5.46093C13.5096 3.87193 15.1076 2.94093 17.0446 2.94093C18.2261 2.94093 19.5331 3.28643 21.0406 4.04243C25.0236 6.03946 31.1621 8.30743 30.9521 11.0105ZM15.9622 11.9774H17.9622V9.97737H15.9622V11.9774ZM15.9622 8.97737H17.9622V6.97737H15.9622V8.97737ZM18.9622 8.97737H20.9622V6.97737H18.9622V8.97737ZM18.9622 11.9774H20.9622V9.97737H18.9622V11.9774ZM11.3092 17.9824L12.0697 17.2219C12.4447 16.8469 12.4447 16.2384 12.0697 15.8639C11.6947 15.4889 11.0872 15.4889 10.7122 15.8639L9.95122 16.6249L9.19022 15.8639C8.81522 15.4889 8.20772 15.4889 7.83271 15.8639C7.45771 16.2389 7.45771 16.8469 7.83271 17.2219L8.59368 17.9829L7.83271 18.7439C7.45771 19.1184 7.45771 19.7264 7.83271 20.1014C8.20772 20.4764 8.81571 20.4764 9.19022 20.1014L9.95122 19.3409L10.7342 20.1239C11.1092 20.4989 11.7167 20.4989 12.0917 20.1239C12.4667 19.7489 12.4667 19.1404 12.0917 18.7654L11.3092 17.9824Z" fill="white"/>
</svg>
