<svg width="32" height="32" viewBox="0 0 32 32" fill="none" xmlns="http://www.w3.org/2000/svg">
<path d="M11.5 22.625H7.875V19C7.875 18.8625 7.7625 18.75 7.625 18.75H6.125C5.9875 18.75 5.875 18.8625 5.875 19V22.625H2.25C2.1125 22.625 2 22.7375 2 22.875V24.375C2 24.5125 2.1125 24.625 2.25 24.625H5.875V28.25C5.875 28.3875 5.9875 28.5 6.125 28.5H7.625C7.7625 28.5 7.875 28.3875 7.875 28.25V24.625H11.5C11.6375 24.625 11.75 24.5125 11.75 24.375V22.875C11.75 22.7375 11.6375 22.625 11.5 22.625Z" fill="white"/>
<path d="M28.5 9.44687L24.5 11.75V7C24.5 5.89688 23.6031 5 22.5 5H4C2.89688 5 2 5.89688 2 7V18H4.25V7.25H22.25V24.75H14V27H22.5C23.6031 27 24.5 26.1031 24.5 25V20.25L28.5 22.5531C29.1656 22.9375 30 22.4562 30 21.6906V10.3125C30 9.54375 29.1656 9.0625 28.5 9.44687ZM27.75 19.5312L24.5 17.6625V14.3406L27.75 12.4688V19.5312Z" fill="white"/>
<path d="M10 11.25C10.1375 11.25 10.25 11.1375 10.25 11V9.5C10.25 9.3625 10.1375 9.25 10 9.25H6.5C6.3625 9.25 6.25 9.3625 6.25 9.5V11C6.25 11.1375 6.3625 11.25 6.5 11.25H10Z" fill="white"/>
</svg>
