<svg width="32" height="32" viewBox="0 0 32 32" fill="none" xmlns="http://www.w3.org/2000/svg">
<path d="M22.4001 12C22.4001 12.3152 22.338 12.6273 22.2174 12.9185C22.0968 13.2097 21.92 13.4742 21.6971 13.6971C21.4742 13.92 21.2097 14.0967 20.9185 14.2174C20.6273 14.338 20.3152 14.4 20.0001 14.4C19.6849 14.4 19.3728 14.338 19.0816 14.2174C18.7904 14.0967 18.5259 13.92 18.303 13.6971C18.0801 13.4742 17.9033 13.2097 17.7827 12.9185C17.6621 12.6273 17.6 12.3152 17.6 12C17.6 11.3635 17.8529 10.7531 18.303 10.303C18.7531 9.85291 19.3635 9.60005 20.0001 9.60005C20.6366 9.60005 21.247 9.85291 21.6971 10.303C22.1472 10.7531 22.4001 11.3635 22.4001 12ZM20.8001 12C20.8001 11.7879 20.7158 11.5844 20.5657 11.4344C20.4157 11.2843 20.2122 11.2 20.0001 11.2C19.7879 11.2 19.5844 11.2843 19.4344 11.4344C19.2843 11.5844 19.2001 11.7879 19.2001 12C19.2001 12.2122 19.2843 12.4157 19.4344 12.5657C19.5844 12.7158 19.7879 12.8 20.0001 12.8C20.2122 12.8 20.4157 12.7158 20.5657 12.5657C20.7158 12.4157 20.8001 12.2122 20.8001 12ZM4.80005 9.60005C4.80005 8.32701 5.30576 7.10611 6.20594 6.20594C7.10611 5.30576 8.32701 4.80005 9.60005 4.80005H22.4001C23.6731 4.80005 24.894 5.30576 25.7942 6.20594C26.6943 7.10611 27.2001 8.32701 27.2001 9.60005V14.4049C26.6545 14.4305 26.1121 14.5521 25.6 14.7713V9.60005C25.6 8.75136 25.2629 7.93742 24.6628 7.33731C24.0627 6.73719 23.2487 6.40005 22.4001 6.40005H9.60005C8.75136 6.40005 7.93742 6.73719 7.33731 7.33731C6.73719 7.93742 6.40005 8.75136 6.40005 9.60005V23.7217C6.40031 23.7846 6.4191 23.846 6.45408 23.8983C6.48906 23.9506 6.53868 23.9914 6.59672 24.0156C6.65477 24.0399 6.71867 24.0464 6.78045 24.0346C6.84222 24.0227 6.89913 23.9929 6.94405 23.9489L8.23525 22.6753L8.23205 22.6705L9.90885 21.0224L10.2384 20.6993L14.3184 16.6912C14.7672 16.2505 15.3711 16.0036 16 16.0036C16.629 16.0036 17.2329 16.2505 17.6816 16.6912L20.4736 19.4337L19.3425 20.5665L16.5601 17.8321C16.4105 17.6855 16.2095 17.6034 16 17.6034C15.7906 17.6034 15.5896 17.6855 15.44 17.8321L11.0304 22.1632L8.06885 25.0881C6.85605 26.2849 4.80005 25.4241 4.80005 23.7217V9.60005ZM5.44005 27.2561C6.03045 27.5505 6.76805 27.7921 7.38725 27.656C7.78885 27.5665 8.31045 27.3472 8.89605 27.1009C10.312 26.5041 12.1008 25.7521 13.4752 26.3057C14.4944 26.7153 14.4096 27.8752 14.1232 28.4337C14.0672 28.5393 14.1104 28.6897 14.2273 28.7169C14.8124 28.8358 15.4099 28.8831 16.0064 28.8577C16.0129 28.7821 16.0252 28.7073 16.0433 28.6337L16.6433 26.2369C16.7967 25.6186 17.1165 25.0542 17.568 24.6049L25.2961 16.8769C25.5731 16.5955 25.9032 16.3719 26.2671 16.2187C26.6311 16.0655 27.0218 15.9859 27.4166 15.9845C27.8115 15.983 28.2027 16.0598 28.5678 16.2102C28.9329 16.3607 29.2645 16.5819 29.5437 16.8612C29.8229 17.1405 30.044 17.4722 30.1943 17.8374C30.3446 18.2025 30.4212 18.5938 30.4196 18.9886C30.418 19.3835 30.3383 19.7741 30.185 20.138C30.0317 20.5019 29.8079 20.8319 29.5265 21.1089L21.7985 28.8353C21.3483 29.2857 20.7842 29.6053 20.1665 29.7601L18.2113 30.2481C16.4176 30.7729 13.7409 30.6033 12.9104 29.9553C12.192 29.3953 12.1632 28.5361 12.4048 27.9649C12.4592 27.8369 12.3632 27.6721 12.2272 27.6929C11.4352 27.8049 10.7872 28.0929 10.1472 28.3761C9.21125 28.7921 8.29765 29.1969 6.98565 29.0337C5.84805 28.8929 5.21445 28.2992 4.86565 27.7136C4.67045 27.3872 5.10085 27.0865 5.44165 27.2561H5.44005Z" fill="white"/>
</svg>
